<svg xmlns="http://www.w3.org/2000/svg" version="1.1" xmlns:xlink="http://www.w3.org/1999/xlink" xmlns:svgjs="http://svgjs.dev/svgjs" width="128" height="128" viewBox="0 0 128 128"><g transform="matrix(0.8046875,0,0,0.8046875,12.760752631578946,18.20076224801476)"><svg viewBox="0 0 95 85" data-background-color="#ffffff" preserveAspectRatio="xMidYMid meet" height="114" width="128" xmlns="http://www.w3.org/2000/svg" xmlns:xlink="http://www.w3.org/1999/xlink"><g id="tight-bounds" transform="matrix(1,0,0,1,-0.24049999999999727,-0.06296144254817193)"><svg viewBox="0 0 95.481 85.12592288509636" height="85.12592288509636" width="95.481"><g><svg viewBox="0 0 95.481 85.12592288509636" height="85.12592288509636" width="95.481"><g><svg viewBox="0 0 95.481 85.12592288509636" height="85.12592288509636" width="95.481"><g id="textblocktransform"><svg viewBox="0 0 95.481 85.12592288509636" height="85.12592288509636" width="95.481" id="textblock"><g><svg viewBox="0 0 95.481 85.12592288509636" height="85.12592288509636" width="95.481"><g><svg viewBox="0 0 95.481 85.12592288509636" height="85.12592288509636" width="95.481"><g><svg xmlns="http://www.w3.org/2000/svg" xmlns:xlink="http://www.w3.org/1999/xlink" version="1.0" x="0" y="0" viewBox="23 27 55 49.0351563" enable-background="new 0 0 100 100" xml:space="preserve" height="85.12592288509636" width="95.481" class="icon-icon-0" data-fill-palette-color="accent" id="icon-0"><g fill="#7e48da" data-fill-palette-color="accent"><g fill="#7e48da" data-fill-palette-color="accent"><path d="M77 27H24c-0.552 0-1 0.448-1 1v37c0 0.552 0.448 1 1 1h25v8.035H34.892c-0.552 0-1 0.448-1 1s0.448 1 1 1h30.216c0.552 0 1-0.448 1-1s-0.448-1-1-1H51V66h26c0.552 0 1-0.448 1-1V28C78 27.448 77.552 27 77 27zM76 29v4H25v-4H76zM25 64V35h51v29H25z" fill="#7e48da" data-fill-palette-color="accent"></path><circle cx="28" cy="31" r="1.0" fill="#7e48da" data-fill-palette-color="accent"></circle><path d="M65.121 48.21l1.469-2.544-1.732-1-1.522 2.635h-4.003l-1.47-2.544-1.732 1 1.521 2.635-2.002 3.468h-2.938v2h3.043l2.002 3.468-1.468 2.545 1.732 1 1.521-2.636h4.004l1.47 2.545 1.732-1-1.521-2.636 2.002-3.468h2.938v-2h-3.043L65.121 48.21zM63.442 56.237h-4.005l-2.002-3.468 2.002-3.468h4.005l2.002 3.468L63.442 56.237z" fill="#7e48da" data-fill-palette-color="accent"></path><circle cx="61.4394531" cy="52.769043" r="1.1" fill="#7e48da" data-fill-palette-color="accent"></circle><circle cx="42.2539063" cy="48.8530273" r="1.5" fill="#7e48da" data-fill-palette-color="accent"></circle><path d="M54.42 49.853v-2h-2.99l-3.722-6.446 1.496-2.591-1.733-1-1.495 2.591h-7.443l-1.496-2.591-1.732 1 1.495 2.591-3.722 6.446h-2.991v2h2.991l3.722 6.446-1.495 2.591 1.732 1 1.496-2.591h7.443l1.495 2.591 1.733-1-1.496-2.591 3.722-6.446H54.42zM45.976 55.299h-7.444l-3.721-6.446 3.721-6.446h7.444l3.721 6.446L45.976 55.299z" fill="#7e48da" data-fill-palette-color="accent"></path></g></g></svg></g></svg></g></svg></g></svg></g></svg></g></svg></g><defs></defs></svg><rect width="95.481" height="85.12592288509636" fill="none" stroke="none" visibility="hidden"></rect></g></svg></g></svg>