<svg xmlns="http://www.w3.org/2000/svg" version="1.1" xmlns:xlink="http://www.w3.org/1999/xlink" xmlns:svgjs="http://svgjs.dev/svgjs" width="2000" height="333" viewBox="0 0 2000 333"><g transform="matrix(1,0,0,1,-1.2121212121212466,0.26586819339169665)"><svg viewBox="0 0 396 66" data-background-color="#ffffff" preserveAspectRatio="xMidYMid meet" height="333" width="2000" xmlns="http://www.w3.org/2000/svg" xmlns:xlink="http://www.w3.org/1999/xlink"><g id="tight-bounds" transform="matrix(1,0,0,1,0.2400000000000091,-0.05269459688844336)"><svg viewBox="0 0 395.52 66.10502346641661" height="66.10502346641661" width="395.52"><g><svg viewBox="0 0 493.02544675235276 82.40154411181435" height="66.10502346641661" width="395.52"><g transform="matrix(1,0,0,1,97.50544675235281,11.033465471739142)"><svg viewBox="0 0 395.52 60.33461316833606" height="60.33461316833606" width="395.52"><g id="textblocktransform"><svg viewBox="0 0 395.52 60.33461316833606" height="60.33461316833606" width="395.52" id="textblock"><g><rect width="232.73562342632994" height="2.8848454043428453" y="48.49560555669693" fill="#773ce5" data-fill-palette-color="tertiary"></rect></g><g><svg viewBox="0 0 395.52 31.989492029131416" height="31.989492029131416" width="395.52"><g transform="matrix(1,0,0,1,0,0)"><svg width="395.52" viewBox="2.86 -35.82 440.3229510307312 35.82" height="31.989492029131416" data-palette-color="#556970"><g transform="matrix(1,0,0,1,0,0)"><g><svg width="16.0819673538208" viewBox="1.78 -36.36 74.21 36.36" height="7.87939453125" data-palette-color="#556970" id="scriptelement" x="427.1009836769104" y="-35.82"><path d="M12.91-30.02L1.78-30.02 1.78-36.36 31.64-36.36 31.64-30.02 20.51-30.02 20.51 0 12.91 0 12.91-30.02ZM36.57 0L36.57-36.36 46.06-36.36 56.07-11.93 56.5-11.93 66.51-36.36 75.99-36.36 75.99 0 68.53 0 68.53-23.67 68.23-23.67 58.82-0.18 53.74-0.18 44.33-23.76 44.03-23.76 44.03 0 36.57 0Z" opacity="1" transform="matrix(1,0,0,1,0,0)" fill="#556970" class="undefined-123" data-fill-palette-color="primary" id="yy-123"></path></svg></g></g><g class="wordmark-text-0" data-fill-palette-color="primary" id="text-0"><path d="M13.65 0L2.86 0 2.86-32.4 13.65-32.4 13.65 0ZM23.46-25.93L15.36-25.93 15.36-32.4 27.69-32.4 34.18-25.93 34.18-16.21 29.2-11.23 28.86-11.91 18.73-10.57 19.12-9.72 15.36-9.72 15.36-15.99 23.46-15.99 23.46-25.93ZM29.2-11.23L35.28 0 23.75 0 19.12-9.72 27.69-9.72 29.2-11.23ZM67.72-19.46L67.72-6.47 61.25 0 54.03 0 54.03-6.05 56.71-6.05 56.71-19.46 54.03-19.46 54.03-25.93 61.25-25.93 67.72-19.46ZM49.51-19.46L49.51-6.05 52.32-6.05 52.32 0 45.07 0 38.6-6.47 38.6-19.46 45.07-25.93 52.32-25.93 52.32-19.46 49.51-19.46ZM83.37-35.82L83.37 0 72.58 0 72.58-35.82 83.37-35.82ZM101.19-25.9L85.05-3.66 85.05-18.46 90.03-25.88 101.19-25.9ZM94.62-13.82L101.75 0 90.03 0 88.25-5.22 94.62-13.82ZM133.51-19.46L133.51-6.47 127.04 0 119.82 0 119.82-6.05 122.5-6.05 122.5-19.46 119.82-19.46 119.82-25.93 127.04-25.93 133.51-19.46ZM115.3-19.46L115.3-6.05 118.11-6.05 118.11 0 110.86 0 104.39-6.47 104.39-19.46 110.86-25.93 118.11-25.93 118.11-19.46 115.3-19.46ZM149.26 0L138.37 0 138.37-25.93 149.26-25.93 149.26 0ZM155.65 0L155.65-19.46 151.02-19.46 151.02-22.29 154.63-25.93 160.63-25.93 166.47-20.09 166.47 0 155.65 0Z" fill="#556970" data-fill-palette-color="primary"></path><path d="M213.29-32.4L213.29-6.47 206.82 0 198.5 0 198.5-6.47 202.5-6.47 202.5-32.4 213.29-32.4ZM192.81-32.4L192.81-6.47 196.79-6.47 196.79 0 188.49 0 181.99-6.47 181.99-32.4 192.81-32.4ZM242.54-6.47L242.54 0 227.45 0 233.19-6.47 242.54-6.47ZM218.47-19.46L218.47-25.93 233.04-25.93 227.45-19.46 218.47-19.46ZM218.22 0L218.22-6.27 235.07-25.93 242.51-25.93 242.51-19.46 225.45 0 218.22 0ZM271.37-6.47L271.37 0 256.28 0 262.02-6.47 271.37-6.47ZM247.3-19.46L247.3-25.93 261.87-25.93 256.28-19.46 247.3-19.46ZM247.05 0L247.05-6.27 263.9-25.93 271.35-25.93 271.35-19.46 254.28 0 247.05 0ZM303.74 0L293.19 0 293.19-19.46 277.84-19.46 277.84-22.68 281.08-25.93 297.27-25.93 303.74-19.46 303.74 0ZM280.01-15.09L291.48-15.09 291.48-10.6 285.92-10.6 285.92-6.05 291.48-6.05 291.48-3.2 288.26 0 280.01 0 275.66-4.27 275.66-10.77 280.01-15.09ZM319.78 0L308.96 0 308.96-25.93 319.78-25.93 319.78 0ZM325.88 0L325.88-19.46 321.49-19.46 321.49-22.51 324.88-25.93 333.23-25.93 336.7-22.46 336.7 0 325.88 0ZM342.8 0L342.8-19.46 338.41-19.46 338.41-22.46 341.73-25.93 348.32-25.93 353.59-20.61 353.59 0 342.8 0ZM386.11 0L375.56 0 375.56-19.46 360.21-19.46 360.21-22.68 363.45-25.93 379.64-25.93 386.11-19.46 386.11 0ZM362.38-15.09L373.85-15.09 373.85-10.6 368.29-10.6 368.29-6.05 373.85-6.05 373.85-3.2 370.63 0 362.38 0 358.03-4.27 358.03-10.77 362.38-15.09ZM401.85 0L390.96 0 390.96-25.93 401.85-25.93 401.85 0ZM408.25 0L408.25-19.46 403.61-19.46 403.61-22.29 407.22-25.93 413.23-25.93 419.06-20.09 419.06 0 408.25 0Z" fill="#7e48da" data-fill-palette-color="accent"></path></g></svg></g></svg></g><g transform="matrix(1,0,0,1,232.73562342632994,39.541443349400645)"><svg viewBox="0 0 162.78437657367004 20.79316981893542" height="20.79316981893542" width="162.78437657367004"><g transform="matrix(1,0,0,1,8,0)"><svg width="146.78437657367004" viewBox="2 -42.3 381.17 54" height="20.79316981893542" data-palette-color="#556970"><path d="M48-37.9L52.9-37.9 42 0.45 36.6 0.45 27.45-30.7 18.35 0.45 12.95 0.45 2-37.9 6.9-37.9 15.7-6.1 24.7-37.9 30.2-37.9 39.25-6.05 48-37.9ZM62.6-13.45Q62.7-8.85 64.9-6.1 67.1-3.35 71.9-3.35L71.9-3.35Q75.55-3.35 79.9-5.4L79.9-5.4 81.35-1.5Q76.8 0.85 71.5 0.85L71.5 0.85Q67.1 0.85 64-1 60.9-2.85 59.3-6.15 57.7-9.45 57.7-13.85L57.7-13.85Q57.7-18.5 59.37-21.78 61.05-25.05 63.9-26.75 66.75-28.45 70.3-28.45L70.3-28.45Q75.75-28.45 78.85-25.05 81.95-21.65 81.95-15.3L81.95-15.3 81.95-13.45 62.6-13.45ZM70.3-24.25Q64.1-24.25 62.9-17.4L62.9-17.4 77-17.4Q76.75-20.9 75.1-22.58 73.45-24.25 70.3-24.25L70.3-24.25ZM101.35-28.45Q106.95-28.45 110.27-24.7 113.6-20.95 113.6-13.8L113.6-13.8Q113.6-6.65 110.27-2.9 106.95 0.85 101.35 0.85L101.35 0.85Q97.3 0.85 93.35-2.5L93.35-2.5 93.35 0 88.65 0 88.65-42.3 93.35-42.3 93.35-25.05Q97.35-28.45 101.35-28.45L101.35-28.45ZM100.7-3.5Q104.65-3.5 106.7-6.13 108.75-8.75 108.75-13.8L108.75-13.8Q108.75-18.85 106.7-21.45 104.65-24.05 100.7-24.05L100.7-24.05Q96.95-24.05 93.35-20.95L93.35-20.95 93.35-6.6Q97.05-3.5 100.7-3.5L100.7-3.5ZM145.39-37.9Q154.74-37.9 159.52-33.08 164.29-28.25 164.29-18.9L164.29-18.9Q164.29-9.5 159.54-4.75 154.79 0 145.39 0L145.39 0 132.79 0 132.79-37.9 145.39-37.9ZM159.29-19.05Q159.29-26.55 155.79-30.1 152.29-33.65 145.39-33.65L145.39-33.65 137.64-33.65 137.64-4.25 145.39-4.25Q152.34-4.25 155.82-7.8 159.29-11.35 159.29-19.05L159.29-19.05ZM174.94-13.45Q175.04-8.85 177.24-6.1 179.44-3.35 184.24-3.35L184.24-3.35Q187.89-3.35 192.24-5.4L192.24-5.4 193.69-1.5Q189.14 0.85 183.84 0.85L183.84 0.85Q179.44 0.85 176.34-1 173.24-2.85 171.64-6.15 170.04-9.45 170.04-13.85L170.04-13.85Q170.04-18.5 171.71-21.78 173.39-25.05 176.24-26.75 179.09-28.45 182.64-28.45L182.64-28.45Q188.09-28.45 191.19-25.05 194.29-21.65 194.29-15.3L194.29-15.3 194.29-13.45 174.94-13.45ZM182.64-24.25Q176.44-24.25 175.24-17.4L175.24-17.4 189.34-17.4Q189.09-20.9 187.44-22.58 185.79-24.25 182.64-24.25L182.64-24.25ZM218.99-27.65L223.89-27.65 213.44 0.45 208.04 0.45 197.49-27.65 202.39-27.65 210.74-4.75 218.99-27.65ZM232.58-13.45Q232.68-8.85 234.88-6.1 237.08-3.35 241.88-3.35L241.88-3.35Q245.53-3.35 249.88-5.4L249.88-5.4 251.33-1.5Q246.78 0.85 241.48 0.85L241.48 0.85Q237.08 0.85 233.98-1 230.88-2.85 229.28-6.15 227.68-9.45 227.68-13.85L227.68-13.85Q227.68-18.5 229.36-21.78 231.03-25.05 233.88-26.75 236.73-28.45 240.28-28.45L240.28-28.45Q245.73-28.45 248.83-25.05 251.93-21.65 251.93-15.3L251.93-15.3 251.93-13.45 232.58-13.45ZM240.28-24.25Q234.08-24.25 232.88-17.4L232.88-17.4 246.98-17.4Q246.73-20.9 245.08-22.58 243.43-24.25 240.28-24.25L240.28-24.25ZM265.68 0.65Q261.93 0.65 260.28-0.85 258.63-2.35 258.63-5.9L258.63-5.9 258.63-42.3 263.33-42.3 263.33-7.15Q263.33-5.15 263.96-4.42 264.58-3.7 266.33-3.7L266.33-3.7Q267.73-3.7 268.83-4L268.83-4 268.83 0.3Q266.83 0.65 265.68 0.65L265.68 0.65ZM286.53 0.85Q282.13 0.85 279.05-1.07 275.98-3 274.43-6.33 272.88-9.65 272.88-13.8L272.88-13.8Q272.88-17.95 274.43-21.28 275.98-24.6 279.05-26.53 282.13-28.45 286.53-28.45L286.53-28.45Q290.93-28.45 294-26.53 297.08-24.6 298.6-21.28 300.13-17.95 300.13-13.8L300.13-13.8Q300.13-9.65 298.6-6.33 297.08-3 294-1.07 290.93 0.85 286.53 0.85L286.53 0.85ZM286.53-3.4Q290.68-3.4 292.95-6.3 295.23-9.2 295.23-13.8L295.23-13.8Q295.23-18.4 292.95-21.28 290.68-24.15 286.53-24.15L286.53-24.15Q282.38-24.15 280.08-21.28 277.78-18.4 277.78-13.8L277.78-13.8Q277.78-9.2 280.08-6.3 282.38-3.4 286.53-3.4L286.53-3.4ZM320.13-28.45Q325.73-28.45 329.05-24.7 332.38-20.95 332.38-13.8L332.38-13.8Q332.38-6.65 329.05-2.9 325.73 0.85 320.13 0.85L320.13 0.85Q316.08 0.85 312.13-2.5L312.13-2.5 312.13 11.7 307.43 11.7 307.43-27.65 312.13-27.65 312.13-25.05Q316.13-28.45 320.13-28.45L320.13-28.45ZM319.48-3.5Q323.43-3.5 325.48-6.13 327.53-8.75 327.53-13.8L327.53-13.8Q327.53-18.85 325.48-21.45 323.43-24.05 319.48-24.05L319.48-24.05Q315.73-24.05 312.13-20.95L312.13-20.95 312.13-6.6Q315.83-3.5 319.48-3.5L319.48-3.5ZM342.92-13.45Q343.02-8.85 345.22-6.1 347.42-3.35 352.22-3.35L352.22-3.35Q355.87-3.35 360.22-5.4L360.22-5.4 361.67-1.5Q357.12 0.85 351.82 0.85L351.82 0.85Q347.42 0.85 344.32-1 341.22-2.85 339.62-6.15 338.02-9.45 338.02-13.85L338.02-13.85Q338.02-18.5 339.7-21.78 341.37-25.05 344.22-26.75 347.07-28.45 350.62-28.45L350.62-28.45Q356.07-28.45 359.17-25.05 362.27-21.65 362.27-15.3L362.27-15.3 362.27-13.45 342.92-13.45ZM350.62-24.25Q344.42-24.25 343.22-17.4L343.22-17.4 357.32-17.4Q357.07-20.9 355.42-22.58 353.77-24.25 350.62-24.25L350.62-24.25ZM382.02-28.25L383.17-28.25 383.17-23.85 382.02-23.85Q377.72-23.85 373.67-20.4L373.67-20.4 373.67 0 368.97 0 368.97-27.65 373.67-27.65 373.67-24.55Q377.77-28.25 382.02-28.25L382.02-28.25Z" opacity="1" transform="matrix(1,0,0,1,0,0)" fill="#556970" class="slogan-text-1" data-fill-palette-color="secondary" id="text-1"></path></svg></g></svg></g></svg></g></svg></g><g><svg viewBox="0 0 82.40154411181435 82.40154411181435" height="82.40154411181435" width="82.40154411181435"><g><svg></svg></g><g id="icon-0"><svg viewBox="0 0 82.40154411181435 82.40154411181435" height="82.40154411181435" width="82.40154411181435"><g><path d="M0 41.201c0-22.755 18.446-41.201 41.201-41.201 22.755 0 41.201 18.446 41.201 41.201 0 22.755-18.446 41.201-41.201 41.201-22.755 0-41.201-18.446-41.201-41.201zM41.201 79.517c21.161 0 38.316-17.155 38.316-38.316 0-21.161-17.155-38.316-38.316-38.316-21.161 0-38.316 17.155-38.316 38.316 0 21.161 17.155 38.316 38.316 38.316z" data-fill-palette-color="tertiary" fill="#773ce5" stroke="transparent"></path></g><g transform="matrix(1,0,0,1,17.23469007957622,19.833852499398063)"><svg viewBox="0 0 47.9321639526619 42.73383911301822" height="42.73383911301822" width="47.9321639526619"><g><svg xmlns="http://www.w3.org/2000/svg" xmlns:xlink="http://www.w3.org/1999/xlink" version="1.0" x="0" y="0" viewBox="23 27 55 49.0351563" enable-background="new 0 0 100 100" xml:space="preserve" height="42.73383911301822" width="47.9321639526619" class="icon-cg-0" data-fill-palette-color="accent" id="cg-0"><g fill="#7e48da" data-fill-palette-color="accent"><g fill="#7e48da" data-fill-palette-color="accent"><path d="M77 27H24c-0.552 0-1 0.448-1 1v37c0 0.552 0.448 1 1 1h25v8.035H34.892c-0.552 0-1 0.448-1 1s0.448 1 1 1h30.216c0.552 0 1-0.448 1-1s-0.448-1-1-1H51V66h26c0.552 0 1-0.448 1-1V28C78 27.448 77.552 27 77 27zM76 29v4H25v-4H76zM25 64V35h51v29H25z" fill="#7e48da" data-fill-palette-color="accent"></path><circle cx="28" cy="31" r="1.0" fill="#7e48da" data-fill-palette-color="accent"></circle><path d="M65.121 48.21l1.469-2.544-1.732-1-1.522 2.635h-4.003l-1.47-2.544-1.732 1 1.521 2.635-2.002 3.468h-2.938v2h3.043l2.002 3.468-1.468 2.545 1.732 1 1.521-2.636h4.004l1.47 2.545 1.732-1-1.521-2.636 2.002-3.468h2.938v-2h-3.043L65.121 48.21zM63.442 56.237h-4.005l-2.002-3.468 2.002-3.468h4.005l2.002 3.468L63.442 56.237z" fill="#7e48da" data-fill-palette-color="accent"></path><circle cx="61.4394531" cy="52.769043" r="1.1" fill="#7e48da" data-fill-palette-color="accent"></circle><circle cx="42.2539063" cy="48.8530273" r="1.5" fill="#7e48da" data-fill-palette-color="accent"></circle><path d="M54.42 49.853v-2h-2.99l-3.722-6.446 1.496-2.591-1.733-1-1.495 2.591h-7.443l-1.496-2.591-1.732 1 1.495 2.591-3.722 6.446h-2.991v2h2.991l3.722 6.446-1.495 2.591 1.732 1 1.496-2.591h7.443l1.495 2.591 1.733-1-1.496-2.591 3.722-6.446H54.42zM45.976 55.299h-7.444l-3.721-6.446 3.721-6.446h7.444l3.721 6.446L45.976 55.299z" fill="#7e48da" data-fill-palette-color="accent"></path></g></g></svg></g></svg></g></svg></g></svg></g></svg></g><defs></defs></svg><rect width="395.52" height="66.10502346641661" fill="none" stroke="none" visibility="hidden"></rect></g></svg></g></svg>